<svg xmlns="http://www.w3.org/2000/svg" viewBox="0 0 128 128"><path fill="#FFA000" d="m27.35 80.52 7.68-71.53c.09-.83.72-1.47 1.48-1.47.38 0 .73.17.98.45l8.18 9.14 15.47 28.93c.26.49.05 1.09-.47 1.35L27.35 80.52"/><path fill="#F57C00" d="M72.45 41.13 64.9 25.84c-.41-.83-1.42-1.14-2.24-.7-.32.17-.56.43-.7.74L27.35 80.52l45.1-39.39z"/><path fill="#FFCA28" d="M97.1 24.04c-.62-.6-1.56-.6-2.15-.02l-14.5 13.47L73.12 24.3c-.35-.66-1.17-.9-1.82-.56a1.42 1.42 0 0 0-.65.62L27.35 80.52l27.48 16.23c2.64 1.53 5.86 1.53 8.49 0L97.3 26.16c.4-.58.31-1.37-.2-1.78l-.01-.34z"/><path fill="#FFA000" d="M63.38 96.75c-2.63 1.53-5.86 1.53-8.49 0L27.46 80.6l-.11-.08-.46.42c-.16.08-.28.22-.35.39l27.49 16.23c2.64 1.53 5.86 1.53 8.49 0l33.98-20.06c.5-.68.49-.68.14-1.01l-33.26 20.26z"/></svg>
